<svg width="5059" height="245" viewBox="0 0 5059 245" fill="none" xmlns="http://www.w3.org/2000/svg">
<rect y="98" width="5059" height="48" fill="url(#paint0_linear_509_16)"/>
<path fill-rule="evenodd" clip-rule="evenodd" d="M1800.28 244.742L1784.97 244.742L1784.97 242.583C1811.84 236.317 1794.42 232.23 1786.54 230.381C1784.46 229.893 1783.04 229.561 1783.28 229.386C1784.23 228.68 1782.79 217.05 1782.3 213.137C1782.21 212.393 1782.15 211.927 1782.15 211.87C1782.15 211.582 1777.24 211.35 1774.79 211.27C1762.11 209.638 1767.24 205.231 1771.39 203.232L1761.77 198.673C1751.81 195.122 1764.03 191.755 1771.39 190.515C1768.13 185.588 1768.39 181.347 1768.58 178.284L1768.58 178.283C1768.66 177.095 1768.72 176.083 1768.56 175.279C1768.1 172.908 1758.42 168.26 1755.02 166.625L1755.02 166.625C1754.29 166.274 1753.85 166.062 1753.85 166.041C1753.85 166.014 1754.1 166.017 1754.52 166.022L1754.52 166.022C1756 166.039 1759.57 166.081 1761.77 164.961C1764.05 163.799 1761.92 163.419 1757.44 162.622L1757.43 162.622C1756.36 162.431 1755.16 162.216 1753.85 161.962C1747.05 160.642 1749.88 159.922 1753.28 159.322C1755.48 158.934 1754.59 158.948 1752.93 158.973C1752.02 158.987 1750.88 159.005 1749.88 158.962C1747.05 158.842 1740.26 158.483 1735.17 157.883C1732.51 157.57 1733.24 157.551 1735.11 157.502C1736.82 157.457 1739.5 157.387 1741.39 157.043C1743.42 156.675 1741.45 156.558 1738.07 156.356C1734.83 156.161 1730.28 155.889 1726.68 155.243C1726.11 155.142 1725.58 155.049 1725.07 154.961C1719.03 153.903 1717.62 153.657 1724.41 150.444C1730.73 147.458 1729.54 145.886 1729.07 145.273C1729 145.172 1728.94 145.097 1728.94 145.046C1728.94 144.824 1729.58 144.557 1730.61 144.133C1731.25 143.868 1732.03 143.541 1732.9 143.126C1734.54 142.345 1729.96 141.878 1726.22 141.497C1724.8 141.352 1723.5 141.219 1722.71 141.087C1720.45 140.703 1720.64 139.407 1721.02 138.807C1713.84 136.126 1716.98 133.795 1719.97 131.577C1721.94 130.122 1723.83 128.715 1722.71 127.29C1720.64 124.66 1726.74 123.631 1730.83 122.94C1732.34 122.686 1733.58 122.477 1734.03 122.251C1734.77 121.887 1734.97 121.545 1735.2 121.168C1735.5 120.674 1735.83 120.119 1737.43 119.372C1739.17 118.563 1743.24 118.295 1746.66 118.07L1746.66 118.07C1748.81 117.929 1750.71 117.804 1751.58 117.572C1752.53 117.32 1751.38 117.067 1750.11 116.788C1748.35 116.404 1746.37 115.969 1749.32 115.413C1752.2 114.87 1755.8 113.099 1758.9 111.576C1761.29 110.406 1763.37 109.383 1764.6 109.174L1764.78 109.144C1768.02 108.596 1782.56 106.137 1774.79 104.255C1766.87 102.336 1766.3 97.417 1767.43 96.4572C1768.56 95.4975 1765.17 92.6181 1760.64 90.6986C1757.75 89.4755 1761.07 88.6421 1764.45 87.7949C1766.37 87.3125 1768.31 86.8255 1769.13 86.2597C1770.94 85.012 1768.75 81.9807 1767.43 80.621C1756.29 80.076 1763.32 78.3621 1767.88 77.2492C1769.34 76.8921 1770.55 76.5969 1770.83 76.422C1771.73 75.8461 1771.2 75.4622 1770.83 75.3422C1758.37 74.305 1771.44 72.5265 1779.25 71.4633L1779.25 71.4633C1781.38 71.1738 1783.12 70.9374 1783.85 70.7833C1786.1 70.3065 1783.88 69.935 1782.28 69.6688C1781.47 69.533 1780.83 69.4247 1781.02 69.3437C1781.19 69.2705 1782.2 69.1973 1783.64 69.0935L1783.64 69.0935L1783.64 69.0935C1786.93 68.8569 1792.41 68.4613 1795.17 67.5441C1797.91 66.6318 1791.18 66.0062 1785.83 65.5087L1785.83 65.5087C1783.44 65.2865 1781.32 65.0899 1780.45 64.9047C1778.85 64.5662 1779.24 64.5333 1780.59 64.4181L1780.59 64.4181C1781.63 64.329 1783.25 64.1909 1784.98 63.825C1788.15 63.1531 1785.17 57.0666 1783.28 54.1073C1773.65 49.4903 1772.69 48.6845 1771.24 47.459C1770.73 47.0286 1770.16 46.5465 1769.13 45.8292C1766.66 44.1096 1770.57 43.2286 1773.59 42.5476C1775.41 42.1358 1776.91 41.7971 1776.49 41.3903C1775.81 40.7407 1776.36 38.6149 1776.9 36.5018C1777.26 35.1023 1777.62 33.7083 1777.62 32.7524C1777.62 30.8328 1744.79 29.2332 1728.37 28.6733C1732.13 25.0211 1723.23 23.7579 1715.11 22.6053C1708.56 21.6755 1702.52 20.8176 1704.03 18.8357C1704.58 18.1222 1703.38 17.9876 1701.68 17.7967C1700.84 17.7024 1699.87 17.5943 1698.94 17.396C1697.35 17.0599 1697.54 16.9121 1697.82 16.6993C1698.04 16.5324 1698.3 16.3255 1697.81 15.9563C1697.14 15.464 1692.98 15.013 1689.42 14.6273L1689.42 14.6273L1689.42 14.6272C1686.9 14.355 1684.69 14.1154 1684.22 13.9168C1683.77 13.7261 1685.2 13.5165 1687.01 13.2502L1687.01 13.2502C1689.76 12.8465 1693.39 12.3127 1692.71 11.5174C1691.88 10.5522 1687.42 9.97209 1683.76 9.49539C1682.41 9.3203 1681.17 9.15915 1680.26 8.998C1678.25 8.64387 1678.81 8.20614 1679.26 7.85756C1679.57 7.61566 1679.82 7.41669 1679.13 7.31839C1678.7 7.25839 1678.14 7.19839 1677.45 7.12527L1677.45 7.12523C1675.38 6.90591 1672.19 6.5685 1668.37 5.75876C1665.44 5.13826 1668.87 4.35928 1671.99 3.64952L1671.99 3.64947C1674.31 3.12416 1676.45 2.63678 1675.73 2.27959C1674.37 1.60776 1675.16 0.480009 1675.73 0.000135624L1686.5 0.000135153L1714.22 0.000133942L3292.96 6.49332e-05L3308.22 0.000125301C3307.47 0.600269 3310.15 2.40073 3326.9 4.80133C3326.9 6.27672 3325.66 7.6266 3324.52 8.86234C3322.51 11.0447 3320.83 12.871 3326.9 14.4038C3326.9 14.5049 3325.95 14.7152 3324.54 15.0294C3317.54 16.5795 3299.14 20.6589 3326.9 26.6469C3328.98 27.367 3331.88 29.5996 3326.9 32.7684C3326.71 33.9287 3327.24 36.3453 3330.87 36.7294C3338.22 37.5096 3328.6 42.6109 3316.71 47.052C3310.3 48.2523 3298.71 51.2291 3303.7 53.5337C3308.6 54.4939 3318.07 56.6545 3316.71 57.6147C3316.25 57.9421 3314.78 58.7069 3312.9 59.6803C3307.9 62.2761 3300.04 66.3551 3300.86 67.5772C3301.25 68.1538 3300.38 68.914 3299.4 69.7609C3297.53 71.3825 3295.29 73.3221 3300.86 74.8991C3300.86 74.9552 3300.68 74.985 3300.41 75.0285C3299.53 75.1711 3297.73 75.4599 3298.6 77.2997C3299.07 78.2902 3298.19 79.0559 3297.47 79.6812C3296.44 80.5713 3295.74 81.1768 3299.73 81.7408C3306.53 82.701 3328.6 92.3035 3328.04 94.344C3327.58 95.9764 3317.66 97.1047 3312.75 97.4648C3313.51 98.185 3315.36 99.6253 3316.71 99.6253C3317.21 99.6253 3316.5 99.6967 3315.29 99.8188C3312.35 100.115 3306.45 100.711 3307.66 101.306C3309.36 102.146 3313.88 104.066 3316.71 104.307C3318.98 104.499 3319.17 105.107 3318.98 105.387C3321.62 105.787 3326.34 106.683 3324.07 107.067C3323.56 107.154 3322.99 107.253 3322.4 107.355C3320.4 107.704 3318.17 108.091 3317.21 108.174L3317.41 108.211C3318.93 108.485 3323.46 109.304 3335.96 110.188C3335.02 110.708 3332.79 111.748 3331.43 111.748C3330.84 111.748 3332.39 111.939 3334.66 112.219C3338.89 112.738 3345.58 113.561 3345.58 114.029C3345.58 114.605 3339.92 116.029 3337.09 116.67L3347.85 118.95C3348.75 119.142 3348.22 120.231 3347.85 120.751C3349.92 121.551 3352.38 124.112 3345.58 127.952L3363.7 131.913L3364.83 134.194C3370.87 134.314 3382.83 134.698 3382.38 135.274C3381.81 135.995 3377.28 137.795 3375.58 137.795C3375.2 137.795 3375.25 137.82 3375.44 137.907C3376.07 138.205 3378.23 139.23 3369.92 142.476C3369.17 142.796 3368.9 143.58 3373.89 144.157L3375.58 144.997C3377.66 145.637 3382.15 146.965 3383.51 147.157C3385.21 147.397 3383.51 148.118 3372.75 149.078C3375.77 149.118 3381.7 149.246 3381.24 149.438C3380.87 149.598 3375.21 150.078 3370.8 150.452C3368.6 150.638 3366.72 150.798 3365.96 150.878C3363.7 151.118 3359.17 151.959 3365.96 153.279C3371.39 154.335 3373.51 154.999 3373.89 155.199L3375.58 156.16C3376.15 156.16 3377.4 156.304 3377.85 156.88C3378.41 157.6 3378.41 159.28 3375.58 159.761C3372.75 160.241 3367.09 161.201 3369.92 162.521C3372.19 163.577 3374.64 164.082 3375.58 164.202C3373.32 165.002 3370.15 166.938 3375.58 168.283C3381.02 169.627 3387.28 170.443 3389.73 170.683C3390.3 171.203 3391.09 172.34 3389.73 172.724C3388.04 173.204 3386.34 174.644 3387.47 174.884C3388.38 175.076 3390.87 175.845 3392 176.205C3375.39 177.765 3343.66 181.462 3349.55 183.767C3350.87 184.127 3353.28 184.967 3352.38 185.447C3351.82 185.74 3355.04 185.89 3358.48 186.05C3362.1 186.219 3365.96 186.398 3365.96 186.767C3365.96 187.488 3337.66 190.608 3335.39 190.608C3333.58 190.608 3339.92 190.848 3343.32 190.968C3332 192.329 3308.45 195.578 3304.83 197.69C3303.25 197.774 3300.16 197.828 3296.71 197.889C3290.25 198.003 3282.53 198.139 3281.05 198.53C3278.79 199.131 3272 202.131 3273.13 203.932C3273.13 204.015 3271.48 204.201 3269.33 204.443C3265.31 204.895 3259.54 205.545 3259.54 206.092C3259.54 206.83 3263.03 207.29 3265.03 207.554C3265.31 207.59 3265.56 207.623 3265.77 207.653C3267.13 207.845 3268.22 209.013 3268.6 209.573L3273.13 210.893L3255.58 212.094C3261.43 213.454 3268.15 217.015 3248.22 220.376C3248.03 220.776 3248.34 221.696 3251.05 222.176L3240.86 223.377C3243.32 223.937 3248.22 225.201 3248.22 225.777C3248.22 225.942 3247.39 226.393 3246.22 227.032C3242.26 229.183 3234.38 233.469 3240.86 236.22C3241.39 236.445 3240.03 236.77 3238.22 237.196C3232.35 238.588 3221.88 241.067 3257.84 244.742L3222.18 244.742C3222.18 244.742 3222.18 244.742 3222.18 244.742L1819.5 244.742L1800.28 244.742ZM3296.09 6.63445C3296.72 6.05457 3296.7 5.50592 3295.38 5.12745L3296.09 6.63445Z" fill="url(#paint1_linear_509_16)"/>
<path d="M1819.5 244.742L1784.98 244.742L1784.98 242.583C1818.93 234.665 1782.15 230.226 1783.28 229.386C1784.41 228.546 1782.15 212.23 1782.15 211.87C1782.15 211.582 1777.24 211.35 1774.79 211.27C1762.11 209.639 1767.24 205.232 1771.39 203.232L1761.77 198.673C1751.81 195.122 1764.03 191.755 1771.39 190.515C1766.86 183.677 1769.13 178.158 1768.57 175.279C1768 172.399 1753.85 166.161 1753.85 166.041C1753.85 165.921 1758.94 166.401 1761.77 164.961C1764.6 163.521 1760.64 163.282 1753.85 161.962C1747.06 160.642 1749.89 159.922 1753.28 159.322C1756.68 158.723 1752.72 159.083 1749.89 158.963C1747.06 158.843 1740.26 158.483 1735.17 157.883C1730.07 157.283 1737.43 157.763 1741.39 157.043C1745.36 156.323 1734.04 156.563 1726.68 155.243C1719.32 153.924 1717.05 153.924 1724.41 150.445C1731.77 146.965 1728.94 145.406 1728.94 145.046C1728.94 144.686 1730.64 144.206 1732.9 143.126C1735.17 142.047 1725.55 141.567 1722.72 141.087C1720.45 140.703 1720.64 139.407 1721.02 138.807C1709.13 134.368 1725.55 130.889 1722.72 127.29C1719.88 123.691 1732.34 123.091 1734.04 122.251C1735.73 121.411 1734.6 120.692 1737.43 119.372C1740.26 118.052 1749.32 118.172 1751.58 117.572C1753.85 116.973 1744.23 116.373 1749.32 115.413C1754.41 114.453 1761.77 109.654 1764.6 109.174C1767.43 108.694 1782.72 106.175 1774.79 104.256C1766.87 102.336 1766.3 97.4171 1767.43 96.4574C1768.57 95.4976 1765.17 92.6183 1760.64 90.6987C1756.11 88.7792 1766.87 87.8194 1769.13 86.2598C1770.94 85.0121 1768.75 81.9808 1767.43 80.6211C1752.72 79.9013 1769.7 77.142 1770.83 76.4221C1771.74 75.8463 1771.21 75.4624 1770.83 75.3424C1754.98 74.0227 1780.45 71.5033 1783.85 70.7835C1787.24 70.0636 1780.45 69.5838 1781.02 69.3438C1781.58 69.1039 1791.21 68.8639 1795.17 67.5442C1799.13 66.2245 1783.28 65.5047 1780.45 64.9049C1777.62 64.305 1781.02 64.6649 1784.98 63.8251C1788.15 63.1533 1785.17 57.0667 1783.28 54.1074C1770.26 47.8689 1773.09 48.5887 1769.13 45.8294C1765.17 43.07 1777.62 42.4702 1776.49 41.3904C1775.36 40.3107 1777.62 35.1519 1777.62 32.7525C1777.62 30.8329 1744.79 29.2333 1728.38 28.6735C1735.17 22.075 1700.64 23.2747 1704.04 18.8358C1704.85 17.77 1701.77 17.996 1698.94 17.3961C1696.11 16.7963 1698.94 16.7963 1697.81 15.9565C1696.68 15.1167 1685.36 14.3968 1684.22 13.917C1683.09 13.4371 1693.85 12.8372 1692.71 11.5175C1691.58 10.1978 1683.66 9.59799 1680.26 8.99814C1676.86 8.39827 1680.83 7.55847 1679.13 7.31853C1677.43 7.07858 1673.47 6.83865 1668.37 5.7589C1663.28 4.67915 1677.43 3.11952 1675.73 2.27972C1674.37 1.60789 1675.16 0.480148 1675.73 0.000274288L1714.22 0.000272605C1713.84 0.120237 1712.98 0.408171 1712.52 0.600126C1711.96 0.840071 1713.65 1.43992 1714.22 2.51967C1714.79 3.59941 1709.12 4.79913 1706.29 5.75889C1703.46 6.71867 1714.22 6.83865 1716.48 7.19856C1718.75 7.55847 1717.05 7.4385 1717.62 8.75819C1718.18 10.0779 1731.77 12.4773 1731.2 12.7173C1730.63 12.9572 1726.67 13.1971 1723.84 13.677C1721.01 14.1569 1731.2 15.5966 1739.13 17.1562C1745.47 18.4039 1744.41 20.6354 1743.09 21.5951C1769.69 23.2747 1762.9 27.7137 1764.6 28.3135C1766.3 28.9134 1794.6 30.593 1804.22 31.0729C1813.84 31.5528 1809.88 32.6325 1811.01 34.1921C1812.15 35.7518 1812.15 39.9508 1811.01 41.6304C1809.88 43.31 1805.35 43.7899 1801.39 46.5492C1797.43 49.3086 1817.81 53.6275 1818.94 54.8272C1820.07 56.027 1817.81 64.185 1813.28 64.7849C1808.75 65.3847 1829.13 67.9042 1829.13 68.2641C1829.13 68.624 1814.98 69.4638 1814.41 69.5837C1813.84 69.7037 1817.24 70.4235 1817.81 71.0234C1818.37 71.6233 1799.13 73.9027 1799.13 74.1427C1799.13 74.3826 1807.62 75.3424 1805.92 76.0622C1804.22 76.782 1788.37 78.7016 1795.17 79.9013C1801.96 81.101 1802.52 83.7404 1802.52 85.0601C1802.52 86.3798 1786.11 86.6197 1797.43 88.8992C1808.75 91.1786 1792.9 97.7771 1805.92 101.856C1816.34 105.119 1803.84 108.415 1796.3 109.654C1795.17 110.974 1791.66 113.805 1786.67 114.573C1781.69 115.341 1783.84 117.052 1785.54 117.812C1782.71 117.932 1768.56 119.252 1770.83 120.452C1772.64 121.411 1768.94 122.451 1766.86 122.851C1756.44 124.483 1756.1 127.69 1757.24 129.09C1747.73 134.848 1753.27 137.968 1757.24 138.807C1755.54 139.167 1753.05 140.007 1756.67 140.487C1761.2 141.087 1769.69 143.846 1766.86 144.206C1764.03 144.566 1763.46 144.926 1765.73 146.485C1765.73 147.445 1754.41 152.364 1756.11 154.164C1757.46 155.603 1769.88 156.683 1775.92 157.043C1774.97 157.003 1772.75 157.187 1771.39 158.243C1769.95 159.359 1785.54 159.359 1789 159.333C1789.16 159.326 1789.33 159.322 1789.5 159.322C1789.85 159.322 1789.62 159.328 1789 159.333C1787.07 159.414 1786.11 159.95 1786.11 160.282C1788.37 161.122 1793.47 162.97 1795.73 163.641C1797.99 164.313 1792.52 165.761 1789.5 166.401C1793.47 168.08 1803.66 175.399 1801.39 176.358C1799.13 177.318 1801.39 180.078 1801.39 181.757C1801.39 183.101 1804.03 188.156 1805.35 190.515C1777.62 194.834 1805.35 203.232 1805.35 203.592C1805.35 203.952 1798.56 203.952 1801.39 207.911C1804.22 211.87 1812.15 211.15 1813.84 211.15C1815.2 211.15 1814.41 212.03 1813.84 212.47C1823.47 222.308 1812.71 228.066 1816.67 229.026C1819.84 229.794 1827.81 232.305 1831.39 233.465C1843.28 237.304 1819.5 242.463 1819.5 242.943L1819.5 244.742Z" fill="white"/>
<path d="M3257.85 244.742L3222.18 244.742C3209.16 243.382 3188.22 239.845 3208.6 236.58C3208.41 236.34 3208.49 235.26 3210.3 232.859C3212.56 229.858 3212.56 230.579 3213.69 228.298C3214.83 226.017 3212 224.217 3210.3 223.737C3213.13 223.297 3218.9 222.369 3219.35 222.176C3219.92 221.936 3210.86 221.576 3216.52 220.376C3222.18 219.176 3233.51 215.815 3227.84 213.174C3227.84 212.886 3224.07 212.174 3222.18 211.854C3227.09 211.894 3237.13 211.806 3238.03 211.134C3239.17 210.293 3238.03 211.374 3235.77 209.813C3233.51 208.253 3236.9 208.613 3232.37 207.413C3227.84 206.212 3223.32 206.092 3229.54 205.132C3235.77 204.172 3240.3 205.492 3240.86 203.812C3241.43 202.131 3238.6 198.17 3248.22 197.93C3257.85 197.69 3263.51 197.93 3267.47 197.93C3271.43 197.93 3279.36 193.969 3307.09 190.969C3305.77 190.889 3302.56 190.705 3300.3 190.608C3297.47 190.488 3321.24 188.568 3325.77 187.488C3330.3 186.407 3326.9 186.287 3321.24 185.807C3315.58 185.327 3314.45 185.087 3315.02 184.367C3315.58 183.647 3316.15 183.047 3315.02 182.566C3313.88 182.086 3302 182.326 3321.24 180.286L3321.24 180.286C3340.49 178.245 3350.68 177.165 3351.24 176.685C3351.81 176.205 3353.51 176.085 3351.24 174.885C3348.98 173.684 3349.55 174.044 3349.55 172.244C3349.55 170.443 3344.45 170.203 3337.09 168.043C3329.73 165.882 3337.09 165.762 3337.09 164.442C3337.09 163.122 3330.87 163.002 3333.13 161.321C3335.39 159.641 3340.49 158.8 3338.79 157.84C3337.09 156.88 3342.75 157.72 3338.79 155.92C3334.83 154.119 3325.77 153.519 3325.77 152.559C3325.77 151.599 3329.73 150.278 3337.09 150.038C3342.98 149.846 3342.94 149.558 3342.19 149.438L3336.7 149.147C3336.22 149.128 3335.78 149.104 3335.39 149.078L3336.7 149.147C3339.9 149.279 3344.62 149.205 3345.02 148.118C3345.58 146.557 3342.19 146.797 3340.49 145.957C3339.13 145.285 3337.66 144.717 3337.09 144.517C3335.77 144.277 3333.13 143.749 3333.13 143.557C3333.13 143.317 3330.3 142.716 3335.39 140.796C3340.49 138.875 3338.79 138.875 3338.79 138.275C3338.79 137.675 3342.19 137.195 3342.19 136.835C3342.19 136.475 3347.28 135.995 3342.19 135.274C3337.09 134.554 3337.09 134.194 3331.43 134.194C3326.9 134.194 3325.77 133.874 3325.77 133.714C3327.85 133.754 3330.3 133.33 3323.51 131.313C3316.71 129.297 3311.24 128.393 3309.36 128.193C3311.43 126.312 3315.13 122.335 3313.32 121.471C3311.51 120.607 3309.17 120.391 3308.22 120.391C3309.73 120.111 3312.3 119.478 3310.49 119.19C3308.22 118.83 3304.83 118.35 3303.7 117.39C3302.56 116.43 3310.49 117.03 3309.36 115.469C3308.22 113.909 3305.96 113.789 3301.43 112.829C3296.9 111.869 3309.92 112.109 3301.43 110.788C3292.94 109.468 3279.92 108.748 3282.75 108.148C3285.58 107.547 3290.11 107.187 3287.85 106.227C3286.03 105.459 3283.69 104.787 3282.75 104.547C3279.17 103.707 3272.56 101.882 3274.83 101.306C3277.09 100.73 3281.05 99.9456 3282.75 99.6255C3279.54 98.9053 3275.62 97.3449 3285.58 96.8648C3294.64 95.8645 3303.92 91.4394 3268.6 81.7409C3268.6 81.3809 3254.45 78.7402 3268.6 75.3793C3264.45 74.4591 3258.07 71.8744 3265.77 68.8977C3266.52 67.2973 3268.71 63.9284 3271.43 63.2563C3274.83 62.4161 3280.49 61.3358 3280.49 59.6554C3280.49 57.9749 3283.88 56.1745 3277.66 54.9742C3271.43 53.7739 3268.6 54.254 3268.6 52.9337C3268.6 51.6133 3272.56 48.9727 3277.66 47.6523C3282.75 46.332 3281.62 48.1324 3285.58 45.2517C3289.54 42.371 3300.3 40.0904 3297.47 38.29C3294.64 36.4895 3292.94 37.2097 3293.51 35.1692C3294.07 33.1286 3297.47 29.0476 3293.51 27.3672C3289.54 25.6868 3264.64 20.5255 3291.24 15.0041C3289.17 13.3636 3286.26 9.84275 3291.24 8.88252C3294.64 7.80224 3299.85 5.47366 3293.51 4.80148C3285.58 3.96127 3270.86 1.3206 3274.26 0.000271416L3308.22 0.000269931C3307.47 0.600413 3310.15 2.40087 3326.9 4.80148C3326.9 8.88252 3317.39 12.0033 3326.9 14.4039C3326.9 15.0041 3293.51 19.4452 3326.9 26.647C3328.98 27.3672 3331.88 29.5998 3326.9 32.7685C3326.71 33.9288 3327.24 36.3455 3330.87 36.7296C3338.22 37.5098 3328.6 42.611 3316.71 47.0522C3310.3 48.2525 3298.71 51.2292 3303.7 53.5338C3308.6 54.4941 3318.07 56.6546 3316.71 57.6148C3315.02 58.8152 3299.73 65.8969 3300.87 67.5774C3302 69.2578 3292.37 72.4986 3300.87 74.8992C3300.87 75.1393 3297.47 74.8992 3298.6 77.2998C3299.73 79.7004 3292.94 80.7807 3299.73 81.7409C3306.53 82.7012 3328.6 92.3036 3328.04 94.3441C3327.58 95.9765 3317.66 97.1048 3312.75 97.4649C3313.51 98.1851 3315.36 99.6255 3316.71 99.6255C3318.41 99.6255 3305.96 100.466 3307.66 101.306C3309.36 102.146 3313.88 104.067 3316.71 104.307C3318.98 104.499 3319.17 105.107 3318.98 105.387C3321.62 105.787 3326.34 106.683 3324.07 107.067C3321.81 107.452 3318.46 108.066 3317.21 108.174C3318.49 108.403 3322.82 109.26 3335.96 110.188C3335.02 110.708 3332.79 111.749 3331.43 111.749C3329.73 111.749 3345.58 113.309 3345.58 114.029C3345.58 114.605 3339.92 116.03 3337.09 116.67L3347.85 118.95C3348.75 119.142 3348.22 120.231 3347.85 120.751C3349.92 121.551 3352.38 124.112 3345.58 127.953L3363.7 131.914L3364.83 134.194C3370.87 134.314 3382.83 134.698 3382.38 135.274C3381.81 135.995 3377.28 137.795 3375.58 137.795C3373.89 137.795 3380.68 138.275 3369.92 142.476C3369.17 142.796 3368.9 143.581 3373.89 144.157L3375.58 144.997C3377.66 145.637 3382.15 146.965 3383.51 147.157C3385.21 147.398 3383.51 148.118 3372.75 149.078C3375.77 149.118 3381.7 149.246 3381.24 149.438C3380.68 149.678 3368.23 150.638 3365.96 150.878C3363.7 151.118 3359.17 151.959 3365.96 153.279C3371.4 154.335 3373.51 154.999 3373.89 155.2L3375.58 156.16C3376.15 156.16 3377.4 156.304 3377.85 156.88C3378.41 157.6 3378.41 159.281 3375.58 159.761C3372.75 160.241 3367.09 161.201 3369.92 162.521C3372.19 163.578 3374.64 164.082 3375.58 164.202C3373.32 165.002 3370.15 166.938 3375.58 168.283C3381.02 169.627 3387.28 170.443 3389.74 170.683C3390.3 171.204 3391.09 172.34 3389.74 172.724C3388.04 173.204 3386.34 174.644 3387.47 174.885C3388.38 175.077 3390.87 175.845 3392 176.205C3375.4 177.765 3343.66 181.462 3349.55 183.767C3350.87 184.127 3353.28 184.967 3352.38 185.447C3351.24 186.047 3365.96 186.047 3365.96 186.768C3365.96 187.488 3337.66 190.608 3335.39 190.608C3333.58 190.608 3339.92 190.849 3343.32 190.969C3332 192.329 3308.45 195.578 3304.83 197.69C3300.3 197.93 3283.32 197.93 3281.05 198.53C3278.79 199.131 3272 202.131 3273.13 203.932C3273.13 204.172 3259.54 205.252 3259.54 206.092C3259.54 206.933 3264.07 207.413 3265.77 207.653C3267.13 207.845 3268.22 209.013 3268.6 209.573L3273.13 210.894L3255.58 212.094C3261.43 213.454 3268.15 217.015 3248.22 220.376C3248.03 220.776 3248.34 221.696 3251.05 222.176L3240.86 223.377C3243.32 223.937 3248.22 225.201 3248.22 225.777C3248.22 226.498 3232.45 232.651 3240.86 236.22C3243.13 237.18 3210.86 239.941 3257.85 244.742Z" fill="white"/>
<g filter="url(#filter0_d_509_16)">
<path d="M2116.29 110.69V163H2033.57V72.7124H2075.62C2089.98 72.7124 2100.33 75.6711 2106.69 81.5884C2113.09 87.4572 2116.29 97.1577 2116.29 110.69ZM2053.21 145.394H2096.57V112.945C2096.57 104.7 2095.02 98.8796 2091.92 95.4844C2088.81 92.0407 2083.38 90.3188 2075.62 90.3188H2053.21V145.394ZM2217.27 154.051C2213.3 156.282 2208.4 158.125 2202.58 159.581C2196.8 160.987 2189.6 162.03 2180.97 162.709C2172.38 163.388 2161.88 163.728 2149.47 163.728L2132.44 72.7124H2153.03L2160.96 116.219L2166.27 115.201C2169.57 114.57 2172 113.503 2173.55 112C2175.15 110.447 2176.36 108.144 2177.19 105.088C2177.57 103.584 2177.94 101.499 2178.28 98.8311C2178.66 96.1149 2179.03 92.8167 2179.37 88.9365L2180.46 72.7124H2200.54L2198.36 97.5942C2198.07 100.989 2197.65 104.045 2197.12 106.761C2196.59 109.477 2195.91 111.83 2195.08 113.818C2193.48 117.796 2191.23 120.9 2188.32 123.131C2185.45 125.362 2180.9 127.229 2174.64 128.733L2163.73 131.279L2166.71 146.194H2168.45C2174.52 146.194 2179.88 145.951 2184.53 145.466C2189.24 144.933 2193.24 144.132 2196.54 143.065C2200.95 141.707 2204.59 139.816 2207.45 137.391C2210.31 134.917 2212.57 131.643 2214.22 127.569C2215.87 123.446 2217.03 118.232 2217.71 111.927L2222.29 72.7124H2242.59L2237.93 111.417C2236.96 119.76 2235.61 126.672 2233.86 132.152C2232.16 137.633 2229.96 142.095 2227.24 145.539C2224.57 148.934 2221.25 151.772 2217.27 154.051ZM2269.44 72.7124C2273.75 72.7124 2277.34 73.0519 2280.2 73.731C2283.11 74.41 2285.54 75.5983 2287.48 77.2959C2289.47 78.945 2291.19 81.2246 2292.65 84.1348C2293.76 86.3174 2294.93 89.373 2296.14 93.3018C2297.35 97.182 2298.64 101.935 2299.99 107.562L2312.8 163H2293.23L2285.95 130.552C2282.41 131.473 2279.91 132.71 2278.46 134.262C2277 135.814 2275.77 138.264 2274.75 141.61C2274.55 142.289 2274.24 143.478 2273.8 145.175C2273.41 146.824 2272.93 148.958 2272.35 151.578L2269.87 163H2249.87L2252.85 149.904C2253.72 145.879 2254.6 142.411 2255.47 139.5C2256.34 136.542 2257.24 134.117 2258.16 132.225C2259.95 128.442 2262.26 125.435 2265.07 123.204C2267.93 120.924 2271.86 119.032 2276.86 117.529L2282.68 115.783C2282 112.533 2281.32 109.623 2280.64 107.052C2279.96 104.482 2279.33 102.275 2278.75 100.432C2277.54 96.6969 2276.13 94.0778 2274.53 92.5742C2272.93 91.0706 2270.33 90.3188 2266.75 90.3188H2256.92V72.7124H2269.44ZM2355.65 148.595C2353.71 153.59 2350.73 157.252 2346.7 159.581C2342.68 161.86 2336.83 163 2329.17 163H2324.22V145.394H2325.46C2328.8 145.394 2331.47 144.763 2333.46 143.502C2335.4 142.241 2336.78 140.325 2337.61 137.754C2338.43 135.135 2338.84 131.182 2338.84 125.896V90.3188H2325.02V72.7124H2375.66C2389.63 72.7124 2399.64 75.6711 2405.71 81.5884C2411.82 87.4572 2414.87 97.2062 2414.87 110.835V163H2395.16V111.126C2395.16 103.366 2393.58 97.958 2390.43 94.9023C2387.27 91.8467 2381.96 90.3188 2374.49 90.3188H2358.49V128.442C2358.49 136.833 2357.54 143.55 2355.65 148.595ZM2487.55 72.2759C2499.92 72.2759 2508.92 75.9136 2514.54 83.189C2520.17 90.4159 2522.98 101.717 2522.98 117.092V163H2476.06V145.394H2503.2V118.62C2503.2 108.386 2501.96 101.062 2499.48 96.6484C2497.06 92.1862 2492.77 89.9551 2486.61 89.9551C2480.93 89.9551 2476.16 92.7925 2472.27 98.4673C2468.39 104.288 2464.78 113.988 2461.43 127.569L2452.63 163H2431.68L2441.5 125.313C2442.71 120.754 2443.88 116.68 2444.99 113.091C2446.16 109.502 2447.27 106.422 2448.34 103.851L2430.3 73.731H2452.05L2458.89 86.5356C2461.8 82.0734 2465.78 78.5812 2470.82 76.0591C2475.91 73.5369 2481.49 72.2759 2487.55 72.2759ZM2663.84 110.69V163H2581.11V72.7124H2623.17C2637.52 72.7124 2647.88 75.6711 2654.23 81.5884C2660.63 87.4572 2663.84 97.1577 2663.84 110.69ZM2600.76 145.394H2644.12V112.945C2644.12 104.7 2642.57 98.8796 2639.46 95.4844C2636.36 92.0407 2630.93 90.3188 2623.17 90.3188H2600.76V145.394ZM2708.14 72.7124V163H2688.5V72.7124H2708.14ZM2734.84 146.194C2746.68 142.314 2756.23 137.415 2763.51 131.498C2768.55 127.472 2772.41 123.082 2775.08 118.329C2777.74 113.527 2779.08 108.507 2779.08 103.269C2779.08 94.6356 2773.67 90.3188 2762.85 90.3188H2725.9V41.8647H2745.98V72.7124H2766.13C2787.95 72.7124 2798.87 82.2432 2798.87 101.305C2798.87 110.423 2796.71 118.96 2792.39 126.914C2788.12 134.82 2782.01 141.877 2774.06 148.085C2763.58 156.234 2750.51 162.636 2734.84 167.292V146.194ZM2878.75 113.091C2878.75 104.942 2877.2 99.1221 2874.09 95.6299C2870.99 92.0892 2865.56 90.3188 2857.8 90.3188H2838.37V163H2818.73V72.7124H2857.8C2872.15 72.7124 2882.51 75.6953 2888.86 81.6611C2895.27 87.5785 2898.47 97.2547 2898.47 110.69V163H2878.75V113.091ZM2999.23 110.69V163H2979.52V110.544C2979.52 103.124 2977.94 97.9095 2974.79 94.9023C2971.63 91.8467 2966.15 90.3188 2958.34 90.3188H2921.46V72.7124H2959.58C2969.14 72.7124 2976.8 73.9977 2982.57 76.5684C2988.39 79.139 2992.61 83.2132 2995.23 88.791C2997.9 94.3203 2999.23 101.62 2999.23 110.69ZM2942.56 108.144V163H2922.91V108.144H2942.56Z" fill="white"/>
</g>
<rect x="2689" y="92.6992" width="11" height="20" transform="rotate(-180 2689 92.6992)" fill="white"/>
<g filter="url(#filter1_d_509_16)">
<circle cx="2693" cy="66" r="11" fill="#F9AF28"/>
<circle cx="2693" cy="66" r="10.95" stroke="black" stroke-width="0.1"/>
</g>
<defs>
<filter id="filter0_d_509_16" x="2033.57" y="41.8652" width="984.662" height="139.428" filterUnits="userSpaceOnUse" color-interpolation-filters="sRGB">
<feFlood flood-opacity="0" result="BackgroundImageFix"/>
<feColorMatrix in="SourceAlpha" type="matrix" values="0 0 0 0 0 0 0 0 0 0 0 0 0 0 0 0 0 0 127 0" result="hardAlpha"/>
<feOffset dx="14" dy="9"/>
<feGaussianBlur stdDeviation="2.5"/>
<feColorMatrix type="matrix" values="0 0 0 0 0 0 0 0 0 0 0 0 0 0 0 0 0 0 1 0"/>
<feBlend mode="normal" in2="BackgroundImageFix" result="effect1_dropShadow_509_16"/>
<feBlend mode="normal" in="SourceGraphic" in2="effect1_dropShadow_509_16" result="shape"/>
</filter>
<filter id="filter1_d_509_16" x="2681" y="54" width="24" height="24" filterUnits="userSpaceOnUse" color-interpolation-filters="sRGB">
<feFlood flood-opacity="0" result="BackgroundImageFix"/>
<feColorMatrix in="SourceAlpha" type="matrix" values="0 0 0 0 0 0 0 0 0 0 0 0 0 0 0 0 0 0 127 0" result="hardAlpha"/>
<feOffset/>
<feGaussianBlur stdDeviation="0.5"/>
<feComposite in2="hardAlpha" operator="out"/>
<feColorMatrix type="matrix" values="0 0 0 0 0 0 0 0 0 0 0 0 0 0 0 0 0 0 1 0"/>
<feBlend mode="normal" in2="BackgroundImageFix" result="effect1_dropShadow_509_16"/>
<feBlend mode="normal" in="SourceGraphic" in2="effect1_dropShadow_509_16" result="shape"/>
</filter>
<linearGradient id="paint0_linear_509_16" x1="1749" y1="121.999" x2="3301" y2="121.998" gradientUnits="userSpaceOnUse">
<stop stop-color="#F5AE2C"/>
<stop offset="1" stop-color="#FFE6B7"/>
</linearGradient>
<linearGradient id="paint1_linear_509_16" x1="1667.26" y1="122.371" x2="3392" y2="122.371" gradientUnits="userSpaceOnUse">
<stop stop-color="#F5AE2C"/>
<stop offset="1" stop-color="#FFE6B7"/>
</linearGradient>
</defs>
</svg>
